<?xml version="1.0" encoding="utf-8"?>
<!-- Generator: Adobe Illustrator 23.0.0, SVG Export Plug-In . SVG Version: 6.00 Build 0)  -->
<svg version="1.1" id="layout" xmlns="http://www.w3.org/2000/svg" xmlns:xlink="http://www.w3.org/1999/xlink" x="0px" y="0px"
	 viewBox="0 0 330 48" style="enable-background:new 0 0 330 48;" xml:space="preserve" width="330" height="48">
<style type="text/css">
	.st0{opacity:0.9;}
	.st1{fill:#777777;}
	.st2{fill-opacity:0.8;}
	.st3{fill:#F4C430;}
	.st4{fill:#FFFFFF;}
	.st5{fill:#FFFFFF;stroke:#FFFFFF;stroke-width:0.2;}
</style>
<g id="Outline_1_" class="st0">
	<path id="Outline" class="st1" d="M258,18L240,0H0v48h330V18H258z M329,47H1V1h238.59l25,25H329V47z"/>
</g>
<g id="background" class="st0">
	<path id="layer" class="st2" d="M329,47H1V1h238.59l25,25H329V47z"/>
</g>
<g id="logo">
	<polygon class="st3" points="277.5,44 280.5,41 279,41 276,44 	"/>
	<polygon class="st3" points="280.5,44 283.5,41 282,41 279,44 	"/>
	<polygon class="st3" points="283.5,44 286.5,41 285,41 282,44 	"/>
	<polygon class="st3" points="286.5,44 289.5,41 288,41 285,44 	"/>
	<polygon class="st3" points="289.5,44 292.5,41 291,41 288,44 	"/>
	<polygon class="st3" points="292.5,44 295.5,41 294,41 291,44 	"/>
	<polygon class="st3" points="295.5,44 298.5,41 297,41 294,44 	"/>
	<polygon class="st3" points="298.5,44 301.5,41 300,41 297,44 	"/>
	<polygon class="st3" points="301.5,44 304.5,41 303,41 300,44 	"/>
	<polygon class="st3" points="304.5,44 307.5,41 306,41 303,44 	"/>
	<polygon class="st3" points="307.5,44 310.5,41 309,41 306,44 	"/>
	<polygon class="st4" points="310.5,44 313.5,41 312,41 309,44 	"/>
	<polygon class="st4" points="326,44 326,41 315,41 312,44 	"/>
	<g>
		<path class="st5" d="M296.19,39.81c-0.51,0.19-1.15,0.31-1.85,0.31c-1.76,0-3.12-1.08-3.12-2.41c0-1.35,1.36-2.43,3.04-2.43
			c0.9,0,1.49,0.19,2.05,0.52l0.21-0.2c-0.63-0.38-1.31-0.56-2.26-0.56c-1.86,0-3.37,1.2-3.37,2.67c0,1.47,1.51,2.65,3.42,2.65
			c0.86,0,1.56-0.1,2.22-0.39v-2.2h-0.33v2.04H296.19z"/>
		<polygon class="st5" points="297.93,40.27 298.27,40.27 298.27,37.86 301.5,37.86 301.5,37.62 298.27,37.62 298.27,35.36 
			301.92,35.36 301.92,35.12 297.93,35.12 		"/>
		<path class="st5" d="M304.46,37.6c0-0.4,0.49-0.66,1.22-0.66c0.52,0,1.01,0.19,1.22,0.42l0.17-0.12
			c-0.22-0.24-0.76-0.46-1.39-0.46c-0.87,0-1.44,0.33-1.44,0.83c0,1.17,2.74,0.68,2.74,1.8c0,0.45-0.48,0.75-1.3,0.75
			c-0.59,0-1.09-0.18-1.42-0.5l-0.17,0.12c0.33,0.33,0.89,0.54,1.6,0.54c0.94,0,1.51-0.36,1.51-0.94
			C307.2,38.15,304.46,38.6,304.46,37.6z"/>
		<polygon class="st5" points="309.11,38.9 307.56,36.83 307.3,36.83 308.99,39.09 308.99,40.27 309.22,40.27 309.22,39.09 
			310.91,36.83 310.66,36.83 		"/>
		<path class="st5" d="M311.37,37.6c0-0.4,0.49-0.66,1.22-0.66c0.52,0,1.01,0.19,1.22,0.42l0.17-0.12
			c-0.22-0.24-0.76-0.46-1.39-0.46c-0.87,0-1.44,0.33-1.44,0.83c0,1.17,2.74,0.68,2.74,1.8c0,0.45-0.48,0.75-1.3,0.75
			c-0.59,0-1.09-0.18-1.42-0.5L311,39.78c0.33,0.33,0.89,0.54,1.6,0.54c0.94,0,1.51-0.36,1.51-0.94
			C314.12,38.15,311.37,38.6,311.37,37.6z"/>
		<polygon class="st5" points="314.22,36.99 315.78,36.99 315.78,40.27 316.01,40.27 316.01,36.99 317.58,36.99 317.58,36.83 
			314.22,36.83 		"/>
		<polygon class="st5" points="318.06,40.27 320.79,40.27 320.79,40.11 318.28,40.11 318.28,38.63 320.51,38.63 320.51,38.47 
			318.28,38.47 318.28,36.99 320.79,36.99 320.79,36.83 318.06,36.83 		"/>
		<polygon class="st5" points="325.63,36.83 323.7,39.25 321.77,36.83 321.52,36.83 321.52,40.27 321.74,40.27 321.74,37.14 
			323.69,39.55 325.63,37.14 325.63,40.27 325.85,40.27 325.85,36.83 		"/>
	</g>
</g>
</svg>
